<svg width="91" height="91" viewBox="0 0 91 91" fill="none" xmlns="http://www.w3.org/2000/svg">
<path fill-rule="evenodd" clip-rule="evenodd" d="M61.0916 3.32689C66.4514 1.86205 71.9839 5.01993 73.4488 10.3797L87.3028 61.0706C88.7677 66.4308 85.6103 71.9632 80.2505 73.428L29.5592 87.2822C24.1994 88.747 18.667 85.5896 17.202 80.2294L3.34805 29.5385C1.8832 24.1787 5.04052 18.6458 10.4003 17.181L61.0916 3.32689Z" fill="white"/>
<path fill-rule="evenodd" clip-rule="evenodd" d="M61.0913 3.32755C66.4511 1.8627 71.9836 5.02058 73.4485 10.3804L87.3025 61.0712C88.7674 66.4315 85.61 71.9639 80.2502 73.4287L29.5589 87.2828C24.1991 88.7477 18.6667 85.5902 17.2018 80.23L3.34776 29.5391C1.88291 24.1793 5.04023 18.6465 10.4 17.1817L61.0913 3.32755Z" fill="#0277FF"/>
<path fill-rule="evenodd" clip-rule="evenodd" d="M54.41 35.597C57.5417 34.9501 59.3861 31.7184 58.3502 28.6931C57.496 26.198 54.8728 24.7011 52.2901 25.2344C49.1584 25.8813 47.314 29.113 48.3499 32.1384C49.2043 34.6334 51.8273 36.1306 54.41 35.597ZM32.4732 41.6253C35.6139 40.9767 37.4637 37.7358 36.4248 34.7018C35.568 32.1997 32.9375 30.6984 30.3473 31.2333C27.2068 31.8822 25.3571 35.1228 26.396 38.1568C27.2526 40.659 29.8834 42.1604 32.4732 41.6253ZM30.1149 54.4456C34.4476 61.1338 42.5234 64.2157 50.2107 62.1147C57.898 60.0138 63.2837 53.2528 63.6124 45.2906L56.2096 44.9849C56.0144 49.7092 52.8187 53.7209 48.2574 54.9676C43.696 56.2142 38.904 54.3855 36.3332 50.4172L30.1149 54.4456Z" fill="white"/>
</svg>
