<svg width="252" height="455" viewBox="0 0 252 455" fill="none" xmlns="http://www.w3.org/2000/svg">
<path d="M5.45804 454.395C4.66955 454.653 3.89011 454.206 3.71714 453.397L0.898338 440.215C0.725333 439.406 1.22431 438.541 2.01284 438.283C2.80133 438.025 3.58077 438.472 3.75374 439.281L6.25935 450.998L17.681 447.261C18.4695 447.003 19.249 447.45 19.422 448.259C19.5949 449.068 19.0959 449.933 18.3074 450.191L5.45804 454.395ZM3.91383 452.225C20.0595 424.239 45.1457 405.51 73.0663 390.717C100.921 375.96 131.946 364.96 159.811 352.706C187.817 340.391 212.711 326.784 229.024 306.752C245.238 286.841 253.145 260.352 246.704 221.831L249.585 221.03C256.144 260.258 248.134 287.79 231.169 308.624C214.302 329.336 188.757 343.198 160.719 355.528C132.541 367.919 101.92 378.742 74.1819 393.438C46.5099 408.099 22.0575 426.454 6.37586 453.636L3.91383 452.225ZM246.704 221.831C240.266 183.323 222.862 159.231 201.555 145.622C180.217 131.993 154.865 128.815 132.469 132.357C110.007 135.909 90.826 146.162 81.6043 159.018C77.0297 165.396 74.9176 172.383 75.9751 179.596C77.0382 186.847 81.3361 194.536 89.9964 202.152L88.0024 204.585C79.0376 196.701 74.2775 188.471 73.0847 180.336C71.8864 172.163 74.3208 164.3 79.3301 157.316C89.2763 143.45 109.413 132.937 132.3 129.317C155.253 125.687 181.281 128.93 203.236 142.954C225.222 156.996 243.024 181.787 249.585 221.03L246.704 221.831ZM89.9964 202.152C107.325 217.391 123.452 217.85 135.767 209.359C148.25 200.753 157.399 182.588 159.944 159.36C165.019 113.029 143.62 47.575 71.8397 2.9191L73.4951 0.234441C146.047 45.3704 168.064 111.813 162.848 159.43C160.246 183.175 150.822 202.497 137.206 211.884C123.422 221.387 105.924 220.346 88.0024 204.585L89.9964 202.152Z" fill="url(#paint0_linear_784_62368)"/>
<defs>
<linearGradient id="paint0_linear_784_62368" x1="-2.91775" y1="240.303" x2="242.242" y2="191.408" gradientUnits="userSpaceOnUse">
<stop stop-color="#BFF0FF"/>
<stop offset="1" stop-color="#82B4FF"/>
</linearGradient>
</defs>
</svg>
